<svg width="25" height="25" viewBox="0 0 25 25" fill="none" xmlns="http://www.w3.org/2000/svg">
<circle cx="12.5" cy="12.5" r="12.5" fill="white"/>
<path d="M9.46455 17.4972H6.87305V9.15365H9.46455V17.4972ZM8.16741 8.01551C7.33891 8.01551 6.66663 7.32928 6.66663 6.50078C6.66663 5.67228 7.33891 5 8.16741 5C8.99591 5 9.66819 5.67228 9.66819 6.50078C9.66819 7.32928 8.99591 8.01551 8.16741 8.01551ZM19.1638 17.4972H16.5779V13.4356C16.5779 12.4676 16.5584 11.2263 15.2306 11.2263C13.8832 11.2263 13.6768 12.278 13.6768 13.3659V17.4972H11.0881V9.15365H13.5736V10.2918H13.6098C13.9557 9.63624 14.801 8.94443 16.0618 8.94443C18.684 8.94443 19.1666 10.6712 19.1666 12.914V17.4972H19.1638Z" fill="#FF9A3D"/>
</svg>
