<svg width="25" height="25" viewBox="0 0 25 25" fill="none" xmlns="http://www.w3.org/2000/svg">
<circle cx="12.5" cy="12.5" r="12.5" fill="white"/>
<path d="M18.8086 9.78197C18.8184 9.91868 18.8184 10.0554 18.8184 10.1921C18.8184 14.362 15.6446 19.1667 9.84375 19.1667C8.05664 19.1667 6.39649 18.6491 5 17.7507C5.25392 17.78 5.49803 17.7898 5.76172 17.7898C7.2363 17.7898 8.59375 17.2918 9.67773 16.4422C8.29101 16.4128 7.1289 15.5046 6.7285 14.2546C6.92383 14.2839 7.11913 14.3035 7.32423 14.3035C7.60742 14.3035 7.89065 14.2644 8.1543 14.1961C6.70899 13.9031 5.62497 12.6335 5.62497 11.1003V11.0613C6.04488 11.2957 6.5332 11.4421 7.05074 11.4617C6.20113 10.8952 5.64451 9.92845 5.64451 8.83469C5.64451 8.24877 5.80073 7.71166 6.07419 7.24291C7.62693 9.15697 9.96093 10.4069 12.5781 10.5437C12.5293 10.3093 12.5 10.0652 12.5 9.82105C12.5 8.08275 13.9062 6.66675 15.6543 6.66675C16.5625 6.66675 17.3828 7.04761 17.959 7.66284C18.6718 7.52613 19.3554 7.26244 19.9609 6.90112C19.7265 7.63356 19.2285 8.2488 18.5742 8.6394C19.209 8.57107 19.8242 8.39525 20.3906 8.15113C19.961 8.77611 19.4238 9.33273 18.8086 9.78197Z" fill="#FF9A3D"/>
</svg>
